<?xml version="1.0" encoding="iso-8859-1"?>
<!-- Uploaded to: SVG Repo, www.svgrepo.com, Generator: SVG Repo Mixer Tools -->
<svg fill="#000000" version="1.1" id="Layer_1" xmlns="http://www.w3.org/2000/svg" xmlns:xlink="http://www.w3.org/1999/xlink" 
	 viewBox="0 0 512 512" xml:space="preserve">
<g>
	<g>
		<path d="M255.999,78.337L154.552,234.701V512h202.894V234.701L255.999,78.337z M255.999,134.223l11.639,17.94h-23.278
			L255.999,134.223z M224.626,182.58h62.748l33.167,51.121c-1.88,0.804-3.968,1.634-6.274,2.463
			c-11.604,4.17-31.131,9.14-58.267,9.14c-30.892,0-52.25-6.416-64.518-11.638L224.626,182.58z M212.044,481.582h-27.075V263.817
			c7.343,2.786,16.373,5.539,27.075,7.701V481.582z M269.537,481.583h-27.074V275.336c4.343,0.241,8.84,0.385,13.537,0.385
			s9.194-0.144,13.538-0.385V481.583z M327.028,481.582h-27.075V271.518c10.703-2.161,19.733-4.914,27.075-7.701V481.582z"/>
	</g>
</g>
<g>
	<g>
		
			<rect x="295.583" y="41.733" transform="matrix(0.7071 -0.7071 0.7071 0.7071 54.7072 245.9577)" width="57.336" height="30.417"/>
	</g>
</g>
<g>
	<g>
		<rect x="240.791" width="30.417" height="57.336"/>
	</g>
</g>
<g>
	<g>
		<rect x="130.793" y="109.999" width="57.336" height="30.417"/>
	</g>
</g>
<g>
	<g>
		<rect x="323.871" y="109.999" width="57.336" height="30.417"/>
	</g>
</g>
<g>
	<g>
		
			<rect x="172.535" y="28.274" transform="matrix(0.7071 -0.7071 0.7071 0.7071 14.7246 149.4322)" width="30.417" height="57.336"/>
	</g>
</g>
</svg>